<?xml version="1.0" encoding="utf-8"?>
<!-- Generator: Adobe Illustrator 26.0.2, SVG Export Plug-In . SVG Version: 6.00 Build 0)  -->
<svg version="1.1" id="图层_1" xmlns="http://www.w3.org/2000/svg" xmlns:xlink="http://www.w3.org/1999/xlink" x="0px" y="0px"
	 viewBox="0 0 699.87 699.87" style="enable-background:new 0 0 699.87 699.87;" xml:space="preserve">
<style type="text/css">
	.st0{fill:#040000;}
</style>
<g>
	<g>
		<path class="st0" d="M351.18,699.01c-192.27,0-348.7-156.43-348.7-348.7c0-192.27,156.43-348.7,348.7-348.7
			c192.27,0,348.7,156.43,348.7,348.7C699.87,542.58,543.45,699.01,351.18,699.01z M351.18,26.28
			c-178.67,0-324.03,145.36-324.03,324.03s145.36,324.03,324.03,324.03S675.2,528.98,675.2,350.31S529.85,26.28,351.18,26.28z"/>
	</g>
	<path class="st0" d="M450.28,338.76v-2.39c63.86-14.37,95.79-44.7,95.79-91c-1.6-63.85-55.08-96.58-160.45-98.18h-36.54
		c0,0.01,0,0.02,0.01,0.03c-0.79-0.01-1.58-0.03-2.36-0.03H170.02v16.43h63.21v383.14h-63.21v14.92h188.3
		c-0.01-0.07-0.02-0.13-0.04-0.2h36.92c108.56-3.19,165.24-41.51,170.03-114.95C562.03,389.04,523.72,353.12,450.28,338.76z
		 M266.59,546.75h-20.07V163.6h20.07V546.75z M336.94,546.75h-21.07V163.6h21.07V546.75z M380.83,166.33
		c43.1,1.6,64.66,27.94,64.66,79.03c4.67,62.23-25.55,91.85-90.61,88.89V173.86C360.03,168.88,368.63,166.33,380.83,166.33z
		 M385.62,542.31c-14.85,0.93-25.07-3.03-30.75-11.81V350.73h11.59c62.26,1.6,93.4,34.33,93.4,98.18
		C459.86,512.78,435.11,543.91,385.62,542.31z"/>
	<g>
		<path class="st0" d="M351.18,665.16c-173.61,0-314.85-141.24-314.85-314.85S177.57,35.46,351.18,35.46S666.03,176.7,666.03,350.31
			S524.79,665.16,351.18,665.16z M351.18,60.13c-160.01,0-290.18,130.18-290.18,290.18c0,160.01,130.18,290.18,290.18,290.18
			s290.18-130.18,290.18-290.18C641.36,190.3,511.19,60.13,351.18,60.13z"/>
	</g>
</g>
</svg>
