<?xml version="1.0" encoding="utf-8"?>
<!-- Generator: Adobe Illustrator 26.0.2, SVG Export Plug-In . SVG Version: 6.00 Build 0)  -->
<svg version="1.1" id="图层_1" xmlns="http://www.w3.org/2000/svg" xmlns:xlink="http://www.w3.org/1999/xlink" x="0px" y="0px"
	 viewBox="0 0 75.12 75.12" style="enable-background:new 0 0 75.12 75.12;" xml:space="preserve">
<style type="text/css">
	.st0{fill:#040000;}
</style>
<g>
	<path class="st0" d="M37.56,75.3c-20.75,0-37.63-16.88-37.63-37.63c0-20.75,16.88-37.63,37.63-37.63
		c20.75,0,37.63,16.88,37.63,37.63C75.19,58.42,58.31,75.3,37.56,75.3z M37.56,2.7C18.28,2.7,2.59,18.39,2.59,37.67
		s15.69,34.97,34.97,34.97s34.97-15.69,34.97-34.97S56.84,2.7,37.56,2.7z"/>
</g>
<path class="st0" d="M46.48,35.98v-0.26c6.89-1.55,10.34-4.82,10.34-9.82c-0.17-6.89-5.94-10.42-17.31-10.6h-3.94c0,0,0,0,0,0
	c-0.08,0-0.17,0-0.25,0H16.23v1.77h6.82v41.35h-6.82v1.61h20.32c0-0.01,0-0.01,0-0.02h3.98c11.71-0.34,17.83-4.48,18.35-12.4
	C58.54,41.4,54.4,37.53,46.48,35.98z M26.66,58.42h-2.17V17.08h2.17V58.42z M34.25,58.42h-2.27V17.08h2.27V58.42z M38.98,17.37
	c4.65,0.17,6.98,3.02,6.98,8.53c0.5,6.72-2.76,9.91-9.78,9.59V18.18C36.74,17.64,37.67,17.37,38.98,17.37z M39.5,57.94
	c-1.6,0.1-2.71-0.33-3.32-1.27v-19.4h1.25c6.72,0.17,10.08,3.7,10.08,10.6C47.51,54.76,44.84,58.12,39.5,57.94z"/>
<g>
	<path class="st0" d="M37.56,71.64c-18.73,0-33.98-15.24-33.98-33.98S18.82,3.69,37.56,3.69s33.98,15.24,33.98,33.98
		S56.29,71.64,37.56,71.64z M37.56,6.35C20.29,6.35,6.24,20.4,6.24,37.67c0,17.27,14.05,31.31,31.31,31.31s31.31-14.05,31.31-31.31
		C68.87,20.4,54.83,6.35,37.56,6.35z"/>
</g>
</svg>
