<?xml version="1.0" encoding="utf-8"?>
<!-- Generator: Adobe Illustrator 26.0.2, SVG Export Plug-In . SVG Version: 6.00 Build 0)  -->
<svg version="1.1" id="图层_1" xmlns="http://www.w3.org/2000/svg" xmlns:xlink="http://www.w3.org/1999/xlink" x="0px" y="0px"
	 viewBox="0 0 700 700" style="enable-background:new 0 0 700 700;" xml:space="preserve">
<style type="text/css">
	.st0{fill:#040000;}
</style>
<g>
	<g>
		<path class="st0" d="M349.5,692.6C160.1,692.6,6,538.5,6,349.1C6,159.7,160.1,5.6,349.5,5.6C538.9,5.6,693,159.7,693,349.1
			C693,538.5,538.9,692.6,349.5,692.6z M349.5,29.9c-176,0-319.2,143.2-319.2,319.2s143.2,319.2,319.2,319.2
			s319.2-143.2,319.2-319.2S525.5,29.9,349.5,29.9z"/>
	</g>
	<path class="st0" d="M447.1,337.7v-2.4c62.9-14.2,94.4-44,94.4-89.6c-1.6-62.9-54.3-95.1-158.1-96.7h-36c0,0,0,0,0,0
		c-0.8,0-1.6,0-2.3,0H171v16.2h62.3v377.4H171v14.7h185.5c0-0.1,0-0.1,0-0.2h36.4c106.9-3.1,162.8-40.9,167.5-113.2
		C557.2,387.3,519.5,351.9,447.1,337.7z M266.2,542.6h-19.8V165.2h19.8V542.6z M335.5,542.6h-20.8V165.2h20.8V542.6z M378.7,167.9
		c42.5,1.6,63.7,27.5,63.7,77.8c4.6,61.3-25.2,90.5-89.3,87.6v-158C358.2,170.4,366.7,167.9,378.7,167.9z M383.4,538.2
		c-14.6,0.9-24.7-3-30.3-11.6V349.5h11.4c61.3,1.6,92,33.8,92,96.7C456.6,509.1,432.2,539.8,383.4,538.2z"/>
	<g>
		<path class="st0" d="M349.5,659.3c-171,0-310.2-139.1-310.2-310.2S178.5,38.9,349.5,38.9s310.2,139.1,310.2,310.2
			S520.5,659.3,349.5,659.3z M349.5,63.2c-157.6,0-285.9,128.2-285.9,285.9C63.6,506.7,191.9,635,349.5,635s285.9-128.2,285.9-285.9
			C635.4,191.5,507.1,63.2,349.5,63.2z"/>
	</g>
</g>
</svg>
