<?xml version="1.0" encoding="utf-8"?>
<!-- Generator: Adobe Illustrator 26.0.2, SVG Export Plug-In . SVG Version: 6.00 Build 0)  -->
<svg width="75" height="75" viewBox="0 0 75 75" stroke="currentColor" stroke-width="2" fill="none" xmlns="http://www.w3.org/2000/svg">
<style type="text/css">
	.st0{fill:#040000;}
</style>
<g>
	<g>
<!-- 		<path class="st0" d="M37.5,75.1C16.8,75.1,0,58.3,0,37.6C0,16.9,16.8,0.1,37.5,0.1C58.2,0.1,75,16.9,75,37.6
			C75,58.3,58.2,75.1,37.5,75.1z M37.5,2.8C18.3,2.8,2.7,18.4,2.7,37.6s15.6,34.8,34.8,34.8s34.8-15.6,34.8-34.8S56.7,2.8,37.5,2.8z
			"/> -->
	</g>
	<path class="st0" d="M48.2,36.4v-0.3c6.9-1.5,10.3-4.8,10.3-9.8c-0.2-6.9-5.9-10.4-17.3-10.6h-3.9c0,0,0,0,0,0c-0.1,0-0.2,0-0.3,0
		H18v1.8h6.8v41.2H18v1.6h20.3c0,0,0,0,0,0h4C53.9,60,60,55.9,60.5,48C60.2,41.8,56.1,37.9,48.2,36.4z M28.4,58.7h-2.2V17.5h2.2
		V58.7z M36,58.7h-2.3V17.5H36V58.7z M40.7,17.8c4.6,0.2,7,3,7,8.5c0.5,6.7-2.7,9.9-9.7,9.6V18.6C38.5,18.1,39.4,17.8,40.7,17.8z
		 M41.2,58.3c-1.6,0.1-2.7-0.3-3.3-1.3V37.7h1.2c6.7,0.2,10,3.7,10,10.6C49.2,55.1,46.5,58.4,41.2,58.3z"/>
	<g>
<!-- 		<path class="st0" d="M37.5,71.5c-18.7,0-33.9-15.2-33.9-33.9S18.8,3.8,37.5,3.8s33.9,15.2,33.9,33.9S56.2,71.5,37.5,71.5z
			 M37.5,6.4c-17.2,0-31.2,14-31.2,31.2c0,17.2,14,31.2,31.2,31.2s31.2-14,31.2-31.2C68.7,20.4,54.7,6.4,37.5,6.4z"/> -->
	</g>
</g>
<circle cx="37.5" cy="37.5" r="35.5" />
</svg>
