<?xml version="1.0" encoding="utf-8"?>
<!-- Generator: Adobe Illustrator 26.0.2, SVG Export Plug-In . SVG Version: 6.00 Build 0)  -->
<svg version="1.1"
	 id="svg5" xmlns:inkscape="http://www.inkscape.org/namespaces/inkscape" xmlns:sodipodi="http://sodipodi.sourceforge.net/DTD/sodipodi-0.dtd" xmlns:svg="http://www.w3.org/2000/svg"
	 xmlns="http://www.w3.org/2000/svg" xmlns:xlink="http://www.w3.org/1999/xlink" x="0px" y="0px" viewBox="0 0 711.6 500.3"
	 style="enable-background:new 0 0 711.6 500.3;" xml:space="preserve">
<path d="M603.9,45.2c-8.2-15.5-20.7-28.4-36.6-36.6c-17.8-9-41.3-9-88.3-9h-235c-46.9,0-70.6,0-88.3,9
	c-15.5,8.2-28.4,20.7-36.6,36.6c-9,17.8-9,41.3-9,88.3c0,0,0,233,0,233.2c0,46.9,0,70.6,9,88.3c8.2,15.5,20.7,28.4,36.6,36.6
	c17.8,9,41.3,9,88.3,9h235c46.9,0,70.6,0,88.3-9c15.5-8.2,28.4-20.7,36.6-36.6c9-17.8,9-41.3,9-88.3V133.6
	C613,86.7,613,63,603.9,45.2z M219.4,124.8l260,0.2c9.3,0,14.8,10.1,9.3,17.2l-79.6,104.2c-3,4.2-9,5.5-13.7,2.6L214.5,140.1
	C207.3,135.5,210.7,124.8,219.4,124.8z M503.9,375.3v-0.2H244.1c-9.6,0-15.3-10.1-9.8-17.2l79.5-104.1c3.2-4.2,9-5.5,13.7-2.6
	L508.8,360C515.9,364.6,512.6,375.3,503.9,375.3z"/>
</svg>
