<?xml version="1.0" encoding="utf-8"?>
<!-- Generator: Adobe Illustrator 26.0.2, SVG Export Plug-In . SVG Version: 6.00 Build 0)  -->
<svg version="1.1" id="katman_1" xmlns="http://www.w3.org/2000/svg" xmlns:xlink="http://www.w3.org/1999/xlink" x="0px" y="0px"
	 viewBox="0 0 800 600" style="enable-background:new 0 0 800 600;" xml:space="preserve">
<style type="text/css">
	.st0{fill:#16161A;}
	.st1{fill:#FFFFFF;}
</style>
<path class="st0" d="M225.6,221c0-31.7,0-47.6,6.1-59.6c5.5-10.7,14.2-19.2,24.7-24.7c12-6.1,28-6.1,59.6-6.1h158.6
	c31.7,0,47.6,0,59.6,6.1c10.7,5.5,19.2,14.2,24.7,24.7c6.1,12,6.1,28,6.1,59.6v157.3c0,31.7,0,47.6-6.1,59.6
	c-5.5,10.7-14.2,19.2-24.7,24.7c-12,6.1-28,6.1-59.6,6.1H316c-31.7,0-47.6,0-59.6-6.1c-10.7-5.5-19.2-14.2-24.7-24.7
	c-6.1-12-6.1-28-6.1-59.6C225.6,378.2,225.6,221,225.6,221z"/>
<path class="st1" d="M299.4,215.1c-5.9,0-8.1,7.2-3.3,10.3l122.1,73.4c3.1,2,7.2,1.1,9.2-1.7l53.7-70.3c3.7-4.8,0-11.6-6.3-11.6
	L299.4,215.1L299.4,215.1z"/>
<path class="st1" d="M491.4,384.1c5.9,0,8.1-7.2,3.3-10.3l-122.3-73.4c-3.1-2-7-1.1-9.2,1.7l-53.7,70.3c-3.7,4.8,0.2,11.6,6.6,11.6
	H491.4z"/>
</svg>
